<svg xmlns="http://www.w3.org/2000/svg" viewBox="0 0 1024 1024">
  <defs>
    <clipPath id="iconMask">
      <rect x="0" y="0" width="1024" height="1024" rx="220" ry="220"/>
    </clipPath>
  </defs>

  <g clip-path="url(#iconMask)">
    <rect width="1024" height="1024" fill="#121117"/>

    <!-- Dense isometric grid: tileW=160, tileH=40, cubeH=90 -->
    <!-- Each row offsets by (±80, +20) per step, cubes every 160px horizontally -->
    <!-- 9 rows, 8 cols, extending well past edges -->

    <!-- Helper: cube at (cx, cy) with colors (top, left, right) -->

    <!-- Row 0 (y offset: -100) -->
    <g transform="translate(-80, -100)"><polygon points="-80,0 0,20 0,110 -80,90" fill="#6B3399"/><polygon points="0,20 80,0 80,90 0,110" fill="#4D2570"/><polygon points="0,-20 80,0 0,20 -80,0" fill="#9953FF"/></g>
    <g transform="translate(80, -80)"><polygon points="-80,0 0,20 0,110 -80,90" fill="#0073B3"/><polygon points="0,20 80,0 80,90 0,110" fill="#005280"/><polygon points="0,-20 80,0 0,20 -80,0" fill="#00A4FF"/></g>
    <g transform="translate(240, -100)"><polygon points="-80,0 0,20 0,110 -80,90" fill="#B34D45"/><polygon points="0,20 80,0 80,90 0,110" fill="#80372F"/><polygon points="0,-20 80,0 0,20 -80,0" fill="#FF6E63"/></g>
    <g transform="translate(400, -80)"><polygon points="-80,0 0,20 0,110 -80,90" fill="#079A98"/><polygon points="0,20 80,0 80,90 0,110" fill="#056E6C"/><polygon points="0,-20 80,0 0,20 -80,0" fill="#0ADCD9"/></g>
    <g transform="translate(560, -100)"><polygon points="-80,0 0,20 0,110 -80,90" fill="#B343B3"/><polygon points="0,20 80,0 80,90 0,110" fill="#803080"/><polygon points="0,-20 80,0 0,20 -80,0" fill="#FF60FF"/></g>
    <g transform="translate(720, -80)"><polygon points="-80,0 0,20 0,110 -80,90" fill="#A2B31B"/><polygon points="0,20 80,0 80,90 0,110" fill="#748012"/><polygon points="0,-20 80,0 0,20 -80,0" fill="#E8FF27"/></g>
    <g transform="translate(880, -100)"><polygon points="-80,0 0,20 0,110 -80,90" fill="#B32761"/><polygon points="0,20 80,0 80,90 0,110" fill="#801C46"/><polygon points="0,-20 80,0 0,20 -80,0" fill="#FF388B"/></g>
    <g transform="translate(1040, -80)"><polygon points="-80,0 0,20 0,110 -80,90" fill="#3253B3"/><polygon points="0,20 80,0 80,90 0,110" fill="#233B80"/><polygon points="0,-20 80,0 0,20 -80,0" fill="#4776FF"/></g>

    <!-- Row 1 (y offset: +40) -->
    <g transform="translate(-160, 40)"><polygon points="-80,0 0,20 0,110 -80,90" fill="#B3577D"/><polygon points="0,20 80,0 80,90 0,110" fill="#803E59"/><polygon points="0,-20 80,0 0,20 -80,0" fill="#FF7F90"/></g>
    <g transform="translate(0, 60)"><polygon points="-80,0 0,20 0,110 -80,90" fill="#A441B3"/><polygon points="0,20 80,0 80,90 0,110" fill="#762F80"/><polygon points="0,-20 80,0 0,20 -80,0" fill="#EB5DFF"/></g>
    <g transform="translate(160, 40)"><polygon points="-80,0 0,20 0,110 -80,90" fill="#00B37D"/><polygon points="0,20 80,0 80,90 0,110" fill="#008059"/><polygon points="0,-20 80,0 0,20 -80,0" fill="#00FFB2"/></g>
    <g transform="translate(320, 60)"><polygon points="-80,0 0,20 0,110 -80,90" fill="#B36B3F"/><polygon points="0,20 80,0 80,90 0,110" fill="#804C2D"/><polygon points="0,-20 80,0 0,20 -80,0" fill="#FF985A"/></g>
    <g transform="translate(480, 40)"><polygon points="-80,0 0,20 0,110 -80,90" fill="#3333B3"/><polygon points="0,20 80,0 80,90 0,110" fill="#242480"/><polygon points="0,-20 80,0 0,20 -80,0" fill="#4949FF"/></g>
    <g transform="translate(640, 60)"><polygon points="-80,0 0,20 0,110 -80,90" fill="#B33D57"/><polygon points="0,20 80,0 80,90 0,110" fill="#802C3E"/><polygon points="0,-20 80,0 0,20 -80,0" fill="#FF577D"/></g>
    <g transform="translate(800, 40)"><polygon points="-80,0 0,20 0,110 -80,90" fill="#079A98"/><polygon points="0,20 80,0 80,90 0,110" fill="#056E6C"/><polygon points="0,-20 80,0 0,20 -80,0" fill="#0ADCD9"/></g>
    <g transform="translate(960, 60)"><polygon points="-80,0 0,20 0,110 -80,90" fill="#6B3399"/><polygon points="0,20 80,0 80,90 0,110" fill="#4D2570"/><polygon points="0,-20 80,0 0,20 -80,0" fill="#9953FF"/></g>
    <g transform="translate(1120, 40)"><polygon points="-80,0 0,20 0,110 -80,90" fill="#B34D45"/><polygon points="0,20 80,0 80,90 0,110" fill="#80372F"/><polygon points="0,-20 80,0 0,20 -80,0" fill="#FF6E63"/></g>

    <!-- Row 2 (y offset: +180) -->
    <g transform="translate(-80, 180)"><polygon points="-80,0 0,20 0,110 -80,90" fill="#0073B3"/><polygon points="0,20 80,0 80,90 0,110" fill="#005280"/><polygon points="0,-20 80,0 0,20 -80,0" fill="#00A4FF"/></g>
    <g transform="translate(80, 200)"><polygon points="-80,0 0,20 0,110 -80,90" fill="#B343B3"/><polygon points="0,20 80,0 80,90 0,110" fill="#803080"/><polygon points="0,-20 80,0 0,20 -80,0" fill="#FF60FF"/></g>
    <g transform="translate(240, 180)"><polygon points="-80,0 0,20 0,110 -80,90" fill="#A2B31B"/><polygon points="0,20 80,0 80,90 0,110" fill="#748012"/><polygon points="0,-20 80,0 0,20 -80,0" fill="#E8FF27"/></g>
    <g transform="translate(400, 200)"><polygon points="-80,0 0,20 0,110 -80,90" fill="#B32761"/><polygon points="0,20 80,0 80,90 0,110" fill="#801C46"/><polygon points="0,-20 80,0 0,20 -80,0" fill="#FF388B"/></g>
    <g transform="translate(560, 180)"><polygon points="-80,0 0,20 0,110 -80,90" fill="#00B37D"/><polygon points="0,20 80,0 80,90 0,110" fill="#008059"/><polygon points="0,-20 80,0 0,20 -80,0" fill="#00FFB2"/></g>
    <g transform="translate(720, 200)"><polygon points="-80,0 0,20 0,110 -80,90" fill="#3253B3"/><polygon points="0,20 80,0 80,90 0,110" fill="#233B80"/><polygon points="0,-20 80,0 0,20 -80,0" fill="#4776FF"/></g>
    <g transform="translate(880, 180)"><polygon points="-80,0 0,20 0,110 -80,90" fill="#B3577D"/><polygon points="0,20 80,0 80,90 0,110" fill="#803E59"/><polygon points="0,-20 80,0 0,20 -80,0" fill="#FF7F90"/></g>
    <g transform="translate(1040, 200)"><polygon points="-80,0 0,20 0,110 -80,90" fill="#A441B3"/><polygon points="0,20 80,0 80,90 0,110" fill="#762F80"/><polygon points="0,-20 80,0 0,20 -80,0" fill="#EB5DFF"/></g>

    <!-- Row 3 (y offset: +320) -->
    <g transform="translate(-160, 320)"><polygon points="-80,0 0,20 0,110 -80,90" fill="#B36B3F"/><polygon points="0,20 80,0 80,90 0,110" fill="#804C2D"/><polygon points="0,-20 80,0 0,20 -80,0" fill="#FF985A"/></g>
    <g transform="translate(0, 340)"><polygon points="-80,0 0,20 0,110 -80,90" fill="#079A98"/><polygon points="0,20 80,0 80,90 0,110" fill="#056E6C"/><polygon points="0,-20 80,0 0,20 -80,0" fill="#0ADCD9"/></g>
    <g transform="translate(160, 320)"><polygon points="-80,0 0,20 0,110 -80,90" fill="#B33D57"/><polygon points="0,20 80,0 80,90 0,110" fill="#802C3E"/><polygon points="0,-20 80,0 0,20 -80,0" fill="#FF577D"/></g>
    <g transform="translate(320, 340)"><polygon points="-80,0 0,20 0,110 -80,90" fill="#6B3399"/><polygon points="0,20 80,0 80,90 0,110" fill="#4D2570"/><polygon points="0,-20 80,0 0,20 -80,0" fill="#9953FF"/></g>
    <g transform="translate(480, 320)"><polygon points="-80,0 0,20 0,130 -80,110" fill="#00B37D"/><polygon points="0,20 80,0 80,110 0,130" fill="#008059"/><polygon points="0,-20 80,0 0,20 -80,0" fill="#00FFB2"/></g>
    <g transform="translate(640, 340)"><polygon points="-80,0 0,20 0,110 -80,90" fill="#B34D45"/><polygon points="0,20 80,0 80,90 0,110" fill="#80372F"/><polygon points="0,-20 80,0 0,20 -80,0" fill="#FF6E63"/></g>
    <g transform="translate(800, 320)"><polygon points="-80,0 0,20 0,110 -80,90" fill="#0073B3"/><polygon points="0,20 80,0 80,90 0,110" fill="#005280"/><polygon points="0,-20 80,0 0,20 -80,0" fill="#00A4FF"/></g>
    <g transform="translate(960, 340)"><polygon points="-80,0 0,20 0,110 -80,90" fill="#B343B3"/><polygon points="0,20 80,0 80,90 0,110" fill="#803080"/><polygon points="0,-20 80,0 0,20 -80,0" fill="#FF60FF"/></g>
    <g transform="translate(1120, 320)"><polygon points="-80,0 0,20 0,110 -80,90" fill="#A2B31B"/><polygon points="0,20 80,0 80,90 0,110" fill="#748012"/><polygon points="0,-20 80,0 0,20 -80,0" fill="#E8FF27"/></g>

    <!-- Row 4 (y offset: +460) -->
    <g transform="translate(-80, 460)"><polygon points="-80,0 0,20 0,110 -80,90" fill="#3333B3"/><polygon points="0,20 80,0 80,90 0,110" fill="#242480"/><polygon points="0,-20 80,0 0,20 -80,0" fill="#4949FF"/></g>
    <g transform="translate(80, 480)"><polygon points="-80,0 0,20 0,110 -80,90" fill="#B32761"/><polygon points="0,20 80,0 80,90 0,110" fill="#801C46"/><polygon points="0,-20 80,0 0,20 -80,0" fill="#FF388B"/></g>
    <g transform="translate(240, 460)"><polygon points="-80,0 0,20 0,110 -80,90" fill="#A441B3"/><polygon points="0,20 80,0 80,90 0,110" fill="#762F80"/><polygon points="0,-20 80,0 0,20 -80,0" fill="#EB5DFF"/></g>
    <g transform="translate(400, 480)"><polygon points="-80,0 0,20 0,110 -80,90" fill="#B3577D"/><polygon points="0,20 80,0 80,90 0,110" fill="#803E59"/><polygon points="0,-20 80,0 0,20 -80,0" fill="#FF7F90"/></g>
    <g transform="translate(560, 460)"><polygon points="-80,0 0,20 0,110 -80,90" fill="#3253B3"/><polygon points="0,20 80,0 80,90 0,110" fill="#233B80"/><polygon points="0,-20 80,0 0,20 -80,0" fill="#4776FF"/></g>
    <g transform="translate(720, 480)"><polygon points="-80,0 0,20 0,110 -80,90" fill="#B36B3F"/><polygon points="0,20 80,0 80,90 0,110" fill="#804C2D"/><polygon points="0,-20 80,0 0,20 -80,0" fill="#FF985A"/></g>
    <g transform="translate(880, 460)"><polygon points="-80,0 0,20 0,110 -80,90" fill="#079A98"/><polygon points="0,20 80,0 80,90 0,110" fill="#056E6C"/><polygon points="0,-20 80,0 0,20 -80,0" fill="#0ADCD9"/></g>
    <g transform="translate(1040, 480)"><polygon points="-80,0 0,20 0,110 -80,90" fill="#00B37D"/><polygon points="0,20 80,0 80,90 0,110" fill="#008059"/><polygon points="0,-20 80,0 0,20 -80,0" fill="#00FFB2"/></g>

    <!-- Row 5 (y offset: +600) -->
    <g transform="translate(-160, 600)"><polygon points="-80,0 0,20 0,110 -80,90" fill="#B343B3"/><polygon points="0,20 80,0 80,90 0,110" fill="#803080"/><polygon points="0,-20 80,0 0,20 -80,0" fill="#FF60FF"/></g>
    <g transform="translate(0, 620)"><polygon points="-80,0 0,20 0,110 -80,90" fill="#A2B31B"/><polygon points="0,20 80,0 80,90 0,110" fill="#748012"/><polygon points="0,-20 80,0 0,20 -80,0" fill="#E8FF27"/></g>
    <g transform="translate(160, 600)"><polygon points="-80,0 0,20 0,110 -80,90" fill="#6B3399"/><polygon points="0,20 80,0 80,90 0,110" fill="#4D2570"/><polygon points="0,-20 80,0 0,20 -80,0" fill="#9953FF"/></g>
    <g transform="translate(320, 620)"><polygon points="-80,0 0,20 0,110 -80,90" fill="#0073B3"/><polygon points="0,20 80,0 80,90 0,110" fill="#005280"/><polygon points="0,-20 80,0 0,20 -80,0" fill="#00A4FF"/></g>
    <g transform="translate(480, 600)"><polygon points="-80,0 0,20 0,110 -80,90" fill="#B34D45"/><polygon points="0,20 80,0 80,90 0,110" fill="#80372F"/><polygon points="0,-20 80,0 0,20 -80,0" fill="#FF6E63"/></g>
    <g transform="translate(640, 620)"><polygon points="-80,0 0,20 0,110 -80,90" fill="#B33D57"/><polygon points="0,20 80,0 80,90 0,110" fill="#802C3E"/><polygon points="0,-20 80,0 0,20 -80,0" fill="#FF577D"/></g>
    <g transform="translate(800, 600)"><polygon points="-80,0 0,20 0,110 -80,90" fill="#3333B3"/><polygon points="0,20 80,0 80,90 0,110" fill="#242480"/><polygon points="0,-20 80,0 0,20 -80,0" fill="#4949FF"/></g>
    <g transform="translate(960, 620)"><polygon points="-80,0 0,20 0,110 -80,90" fill="#B32761"/><polygon points="0,20 80,0 80,90 0,110" fill="#801C46"/><polygon points="0,-20 80,0 0,20 -80,0" fill="#FF388B"/></g>
    <g transform="translate(1120, 600)"><polygon points="-80,0 0,20 0,110 -80,90" fill="#3253B3"/><polygon points="0,20 80,0 80,90 0,110" fill="#233B80"/><polygon points="0,-20 80,0 0,20 -80,0" fill="#4776FF"/></g>

    <!-- Row 6 (y offset: +740) -->
    <g transform="translate(-80, 740)"><polygon points="-80,0 0,20 0,110 -80,90" fill="#B3577D"/><polygon points="0,20 80,0 80,90 0,110" fill="#803E59"/><polygon points="0,-20 80,0 0,20 -80,0" fill="#FF7F90"/></g>
    <g transform="translate(80, 760)"><polygon points="-80,0 0,20 0,110 -80,90" fill="#00B37D"/><polygon points="0,20 80,0 80,90 0,110" fill="#008059"/><polygon points="0,-20 80,0 0,20 -80,0" fill="#00FFB2"/></g>
    <g transform="translate(240, 740)"><polygon points="-80,0 0,20 0,110 -80,90" fill="#A441B3"/><polygon points="0,20 80,0 80,90 0,110" fill="#762F80"/><polygon points="0,-20 80,0 0,20 -80,0" fill="#EB5DFF"/></g>
    <g transform="translate(400, 760)"><polygon points="-80,0 0,20 0,110 -80,90" fill="#079A98"/><polygon points="0,20 80,0 80,90 0,110" fill="#056E6C"/><polygon points="0,-20 80,0 0,20 -80,0" fill="#0ADCD9"/></g>
    <g transform="translate(560, 740)"><polygon points="-80,0 0,20 0,110 -80,90" fill="#B36B3F"/><polygon points="0,20 80,0 80,90 0,110" fill="#804C2D"/><polygon points="0,-20 80,0 0,20 -80,0" fill="#FF985A"/></g>
    <g transform="translate(720, 760)"><polygon points="-80,0 0,20 0,110 -80,90" fill="#B343B3"/><polygon points="0,20 80,0 80,90 0,110" fill="#803080"/><polygon points="0,-20 80,0 0,20 -80,0" fill="#FF60FF"/></g>
    <g transform="translate(880, 740)"><polygon points="-80,0 0,20 0,110 -80,90" fill="#6B3399"/><polygon points="0,20 80,0 80,90 0,110" fill="#4D2570"/><polygon points="0,-20 80,0 0,20 -80,0" fill="#9953FF"/></g>
    <g transform="translate(1040, 760)"><polygon points="-80,0 0,20 0,110 -80,90" fill="#A2B31B"/><polygon points="0,20 80,0 80,90 0,110" fill="#748012"/><polygon points="0,-20 80,0 0,20 -80,0" fill="#E8FF27"/></g>

    <!-- Row 7 (y offset: +880) -->
    <g transform="translate(-160, 880)"><polygon points="-80,0 0,20 0,110 -80,90" fill="#0073B3"/><polygon points="0,20 80,0 80,90 0,110" fill="#005280"/><polygon points="0,-20 80,0 0,20 -80,0" fill="#00A4FF"/></g>
    <g transform="translate(0, 900)"><polygon points="-80,0 0,20 0,110 -80,90" fill="#B34D45"/><polygon points="0,20 80,0 80,90 0,110" fill="#80372F"/><polygon points="0,-20 80,0 0,20 -80,0" fill="#FF6E63"/></g>
    <g transform="translate(160, 880)"><polygon points="-80,0 0,20 0,110 -80,90" fill="#3253B3"/><polygon points="0,20 80,0 80,90 0,110" fill="#233B80"/><polygon points="0,-20 80,0 0,20 -80,0" fill="#4776FF"/></g>
    <g transform="translate(320, 900)"><polygon points="-80,0 0,20 0,110 -80,90" fill="#B32761"/><polygon points="0,20 80,0 80,90 0,110" fill="#801C46"/><polygon points="0,-20 80,0 0,20 -80,0" fill="#FF388B"/></g>
    <g transform="translate(480, 880)"><polygon points="-80,0 0,20 0,110 -80,90" fill="#00B37D"/><polygon points="0,20 80,0 80,90 0,110" fill="#008059"/><polygon points="0,-20 80,0 0,20 -80,0" fill="#00FFB2"/></g>
    <g transform="translate(640, 900)"><polygon points="-80,0 0,20 0,110 -80,90" fill="#B3577D"/><polygon points="0,20 80,0 80,90 0,110" fill="#803E59"/><polygon points="0,-20 80,0 0,20 -80,0" fill="#FF7F90"/></g>
    <g transform="translate(800, 880)"><polygon points="-80,0 0,20 0,110 -80,90" fill="#3333B3"/><polygon points="0,20 80,0 80,90 0,110" fill="#242480"/><polygon points="0,-20 80,0 0,20 -80,0" fill="#4949FF"/></g>
    <g transform="translate(960, 900)"><polygon points="-80,0 0,20 0,110 -80,90" fill="#B33D57"/><polygon points="0,20 80,0 80,90 0,110" fill="#802C3E"/><polygon points="0,-20 80,0 0,20 -80,0" fill="#FF577D"/></g>
    <g transform="translate(1120, 880)"><polygon points="-80,0 0,20 0,110 -80,90" fill="#079A98"/><polygon points="0,20 80,0 80,90 0,110" fill="#056E6C"/><polygon points="0,-20 80,0 0,20 -80,0" fill="#0ADCD9"/></g>
  </g>
</svg>
